# xmcd
#
# Track frame offsets: 
#        150
#        12443
#        27291
#        38688
#        50638
#        61385
#        72619
#        87891
#        98121
#        113038
#        124235
#        135611
#        147428
#        157806
#        170089
#        182309
#        194600
#        205161
#        220239
#        230403
#        240745
#        251712
#        262830
#        271836
#
# Disc length: 3727 seconds
#
# Revision: 3
# Processed by: cddbd v1.5.2PL0 Copyright (c) Steve Scherf et al.
# Submitted via: ExactAudioCopyFreeDBPlugin 1.0
#
DISCID=5b0e8d18
DTITLE=Chet Atkins - 8 Classic Albums [Disc 2]
DYEAR=2013
DGENRE=Oldies
TTITLE0=South
TTITLE1=Indiana (Back Home Again In Indiana)
TTITLE2=Alabama Jubilee
TTITLE3=Have You Ever Been Lonely (Have You Ever Been Blue)
TTITLE4=Red Wing
TTITLE5=Old Man River
TTITLE6=Caravan
TTITLE7=Corrine, Corrina
TTITLE8=The Birth Of The Blues
TTITLE9=A Gay Ranchero
TTITLE10=Frankie And Johnnie
TTITLE11=Honeysuckle Rose
TTITLE12=Arkansas Traveler
TTITLE13=Londonderry Air
TTITLE14=Ochi Chornya (Dark Eyes)
TTITLE15=La Golondrina (The Swallow)
TTITLE16=Blues In The Night
TTITLE17=Tenderly
TTITLE18=Little Rock Getaway
TTITLE19=Tip-Toe Through The Tulips With Me
TTITLE20=Minuet (From 'French Harpsichord Suite') - Prelude (From 'Six
TTITLE20=Short Preludes')
TTITLE21=Intermezzo
TTITLE22=Schon Rosmarin
TTITLE23=Minute Waltz
EXTD=
EXTT0=
EXTT1=
EXTT2=
EXTT3=
EXTT4=
EXTT5=
EXTT6=
EXTT7=
EXTT8=
EXTT9=
EXTT10=
EXTT11=
EXTT12=
EXTT13=
EXTT14=
EXTT15=
EXTT16=
EXTT17=
EXTT18=
EXTT19=
EXTT20=
EXTT21=
EXTT22=
EXTT23=
PLAYORDER=
